<?xml version="1.0" encoding="utf-8"?>
<!-- Generator: Adobe Illustrator 21.1.0, SVG Export Plug-In . SVG Version: 6.00 Build 0)  -->
<svg version="1.1" id="Слой_1" xmlns="http://www.w3.org/2000/svg" xmlns:xlink="http://www.w3.org/1999/xlink" x="0px" y="0px"
	 viewBox="0 0 235 100" style="enable-background:new 0 0 235 100;" xml:space="preserve">
<style type="text/css">
	.st0{fill:url(#SVGID_1_);}
	.st1{fill:url(#SVGID_2_);}
	.st2{fill:url(#SVGID_3_);}
	.st3{fill:url(#SVGID_4_);}
</style>
<g>
	<linearGradient id="SVGID_1_" gradientUnits="userSpaceOnUse" x1="29.6571" y1="100.8718" x2="204.4075" y2="-2.036592e-02">
		<stop  offset="1.282919e-06" style="stop-color:#26333B"/>
		<stop  offset="1" style="stop-color:#7D94A7"/>
	</linearGradient>
	<path class="st0" d="M234,58.9c-2,27-55.9,45-120.5,40.3S-1.9,68.9,0.1,41.9S56-3.1,120.6,1.6S236,32,234,58.9z M108.9,6.2
		C54.8,2.3,9.6,16.7,8,38.4S49,81,103.2,84.9s99.4-10.5,101-32.2S163.1,10.2,108.9,6.2z"/>
	<linearGradient id="SVGID_2_" gradientUnits="userSpaceOnUse" x1="19.2773" y1="41.4164" x2="53.5877" y2="7.1059">
		<stop  offset="4.806216e-07" style="stop-color:#878787"/>
		<stop  offset="1" style="stop-color:#FFFFFF"/>
	</linearGradient>
	<circle class="st1" cx="36.4" cy="24.3" r="24.3"/>
	<linearGradient id="SVGID_3_" gradientUnits="userSpaceOnUse" x1="49.1143" y1="55.0871" x2="89.302" y2="14.8993">
		<stop  offset="4.806216e-07" style="stop-color:#0300BF"/>
		<stop  offset="1" style="stop-color:#3FD1FF"/>
	</linearGradient>
	<circle class="st2" cx="69.2" cy="35" r="28.4"/>
	<linearGradient id="SVGID_4_" gradientUnits="userSpaceOnUse" x1="86.6892" y1="70.0506" x2="134.8544" y2="21.8854">
		<stop  offset="0" style="stop-color:#E30613"/>
		<stop  offset="1" style="stop-color:#FF936A"/>
	</linearGradient>
	<circle class="st3" cx="110.8" cy="46" r="34.1"/>
</g>
</svg>
